<svg xmlns="http://www.w3.org/2000/svg" id="Layer_1" data-name="Layer 1" viewBox="0 0 313.77 84.59"><defs><style>.cls-1{fill:#e23125;}</style></defs><path class="cls-1" d="M27.92,83.16V53.58L0,0H17.23L35.64,38.37,53.94,0h17L43.13,53.58V83.16Z"></path><path class="cls-1" d="M88.11,84.59a30.69,30.69,0,0,1-15.44-3.92A29.5,29.5,0,0,1,61.86,69.86,32.5,32.5,0,0,1,57.94,53.7a31.05,31.05,0,0,1,4-16A29.16,29.16,0,0,1,72.79,26.73a30.69,30.69,0,0,1,15.44-3.92,29.84,29.84,0,0,1,15.21,3.92,28.11,28.11,0,0,1,10.81,10.93,31.15,31.15,0,0,1,4,16,31.83,31.83,0,0,1-4,16.16,28.42,28.42,0,0,1-10.81,10.81A30.47,30.47,0,0,1,88.11,84.59Zm0-13.19A14.15,14.15,0,0,0,98.45,67q4.39-4.52,4.4-13.31t-4.4-13.19A13.84,13.84,0,0,0,88.23,36a14.08,14.08,0,0,0-10.45,4.51q-4.27,4.4-4.28,13.19T77.78,67A14.13,14.13,0,0,0,88.11,71.4Z"></path><path class="cls-1" d="M218.42,29.7q-6.06-6.89-17-6.89A23.57,23.57,0,0,0,189.2,25.9a22,22,0,0,0-8.07,8.54L164.42,63.78a38.68,38.68,0,0,1-2.65,3.46,13,13,0,0,1-8.36,4.4,16,16,0,0,1-2,.12q-6.66,0-9.74-4T138.6,56.08V24.24H123.51V57.5q0,13.31,5.94,20.2t17.11,6.89a23.71,23.71,0,0,0,10-2A22.38,22.38,0,0,0,166.74,73l11-21.51c3.34-6.54,5.51-8.28,8.2-11.29a13.75,13.75,0,0,1,10.57-4.52q6.54,0,9.63,4t3.09,11.64V83.16h15.2V49.9Q224.48,36.6,218.42,29.7Z"></path><path class="cls-1" d="M240,17.8a8.77,8.77,0,0,1-6.45-2.55,8.86,8.86,0,0,1-2.44-6.41,8.49,8.49,0,0,1,2.44-6.3A8.11,8.11,0,0,1,239.67,0a9.13,9.13,0,0,1,6.65,2.54,8.28,8.28,0,0,1,2.56,6.3,8.64,8.64,0,0,1-2.56,6.41A8.38,8.38,0,0,1,240,17.8Zm-7.6,65.36V24.24h15.21V83.16Z"></path><path class="cls-1" d="M284.9,84.59A31.68,31.68,0,0,1,269,80.67a29.11,29.11,0,0,1-10.93-10.93,32.33,32.33,0,0,1-3.92-16,32.33,32.33,0,0,1,3.92-16A29,29,0,0,1,269,26.73a31.68,31.68,0,0,1,15.92-3.92q11.3,0,19,5.94a26,26,0,0,1,9.86,16.16h-16A11.39,11.39,0,0,0,293,38.26a13.54,13.54,0,0,0-8.19-2.5,14,14,0,0,0-10.7,4.75q-4.39,4.76-4.39,13.19t4.39,13.19A14.77,14.77,0,0,0,293,69.26a11.42,11.42,0,0,0,4.76-6.77h16a26.85,26.85,0,0,1-9.86,16Q296.18,84.59,284.9,84.59Z"></path></svg>